# xmcd
#
# Track frame offsets:
#	150
#	8745
#	19567
#	28865
#	31287
#	45195
#	53321
#	63561
#	67943
#	76267
#	90562
#	103488
#	105841
#	111859
#	127377
#
# Disc length: 1770 seconds
#
# Revision: 1
# Processed by: cddbd v1.5.1PL0 Copyright (c) Steve Scherf et al.
# Submitted via: CDmax 2.0
#
DISCID=b206e80f
DTITLE=Carlos Guitarlos - Mission Blues
DYEAR=2001
DGENRE=Blues
TTITLE0=Damn Achfayala
TTITLE1=Dance With Your Baby
TTITLE2=Mission Blues #6
TTITLE3=Intro
TTITLE4=Drinking Again
TTITLE5=Maybelline
TTITLE6=Coco Club
TTITLE7=Intro
TTITLE8=Keep My Hot Tamales Warm
TTITLE9=Ramblin' on My Mind
TTITLE10=The Love I Want
TTITLE11=Intro
TTITLE12=Poppin' and Bumpin'
TTITLE13=Ain't That Lovin You
TTITLE14=String Lament
EXTD=
EXTT0=
EXTT1=
EXTT2=
EXTT3=
EXTT4=
EXTT5=
EXTT6=
EXTT7=
EXTT8=
EXTT9=
EXTT10=
EXTT11=
EXTT12=
EXTT13=
EXTT14=
PLAYORDER=
